<?xml version="1.0" encoding="UTF-8" standalone="no"?>
    <!-- Generator: Adobe Illustrator 16.0.0, SVG Export Plug-In . SVG Version: 6.00 Build 0)  -->

    <svg xmlns:svg="http://www.w3.org/2000/svg" xmlns="http://www.w3.org/2000/svg" version="1.1" id="Layer_1" x="0px" y="0px" width="37.807999" height="50" viewBox="0 0 37.807999 50" enable-background="new 0 0 100 100" xml:space="preserve">
        <metadata id="metadata49"></metadata>
        <defs id="defs47" />
        <g id="g5" style="fill:#ffffff;fill-opacity:1" transform="matrix(0.74124545,0,0,0.74124589,-18.252428,-7.999526)">
            <path id="path7" d="m 42.75,48.824 c 0.724,-0.647 1.494,-1.271 2.239,-1.875 1.734,-1.405 3.527,-2.859 4.814,-4.685 0.348,-0.497 0.656,-1.023 0.939,-1.567 -0.176,0.057 -0.279,0.089 -0.288,0.091 -0.147,0.052 -0.318,0.082 -0.489,0.082 -0.645,0 -1.19,-0.418 -1.27,-0.974 -0.108,-0.59 0.424,-1.029 1.078,-1.501 l 2.295,-1.772 c -0.703,-1.035 -1.277,-2.089 -1.747,-3.212 -0.67,-1.591 -1.303,-3.096 -1.182,-4.723 0.213,-3.595 3.683,-5.991 5.731,-7.098 1.022,-0.575 3.165,-1.78 5.465,-1.78 0.613,0 1.198,0.089 1.746,0.263 -3.633,-5.585 -9.926,-9.281 -17.084,-9.281 -11.252,0 -20.373,9.121 -20.373,20.372 0,9.703 6.785,17.815 15.867,19.867 0.705,-0.76 1.455,-1.495 2.259,-2.207 z" style="fill:#ffffff;fill-opacity:1" />
        </g>
        <g id="g9" style="fill:#ffffff;fill-opacity:1" transform="matrix(0.74124545,0,0,0.74124589,-18.252428,-7.999526)">
            <path id="path11" d="m 71.563,25.59 c -0.05,0 -0.169,0.021 -0.411,0.16 l -3.27,1.928 c -0.116,0.069 -0.258,0.085 -0.387,0.044 -0.129,-0.041 -0.234,-0.135 -0.29,-0.259 -0.543,-1.202 -1.175,-2.27 -1.931,-3.264 l -0.033,-0.042 c -1.016,-1.31 -1.893,-2.441 -3.14,-3.001 -0.582,-0.261 -1.229,-0.394 -1.923,-0.394 -2.051,0 -4.046,1.122 -5.005,1.662 -1.516,0.819 -5.047,3.068 -5.24,6.326 -0.104,1.405 0.458,2.742 1.11,4.291 0.498,1.192 1.122,2.306 1.907,3.404 0.148,0.209 0.105,0.499 -0.098,0.655 l -2.667,2.058 c -0.498,0.36 -0.658,0.528 -0.699,0.607 0.031,0.063 0.146,0.149 0.32,0.149 0.063,0 0.127,-0.011 0.192,-0.034 0.09,-0.028 7.32,-2.267 12.783,-6.014 3.308,-2.259 6.229,-4.878 8.687,-7.785 0.179,-0.204 0.228,-0.401 0.183,-0.446 C 71.606,25.59 71.584,25.59 71.563,25.59 Z" style="fill:#ffffff;fill-opacity:1" />
        </g>
        <path id="path41" d="m 37.696779,20.25825 c -0.245353,-0.433629 -1.301627,-0.584843 -3.226642,-1.415039 -0.263883,-0.11341 -0.528508,-0.245352 -0.697512,-0.472173 -0.150473,-0.207549 -0.189017,-0.471433 -0.226821,-0.736057 -0.121564,-1.128177 -0.133424,-2.36754 -0.641177,-3.349691 -1.289767,1.22528 -2.700357,2.364575 -4.218428,3.402319 -2.933108,2.011 -6.529631,3.445311 -8.395346,4.11688 -0.313547,0.693065 -0.667121,1.360927 -1.101491,1.980609 -1.396506,1.98135 -3.490525,3.32004 -5.282856,4.924837 -4.4148581,3.905625 -6.6741742,8.677766 -7.0522094,14.564741 -0.018531,0.432888 0.04744,2.414979 -1.0948195,2.457971 C 4.4356127,45.782311 2.9731355,43.975895 2.358643,43.025617 2.1636954,42.72393 2.1496118,42.676491 2.0814172,42.619415 c -0.046699,-0.04003 -0.2119962,-0.08895 -0.2564709,0.387671 -0.073383,0.787945 -0.036321,1.381683 0.042992,1.982833 0.2164437,1.633706 1.22602,2.704065 2.687756,3.666202 0.3824826,0.252024 1.7560105,1.016248 3.5327758,1.254929 C 8.6147546,49.981469 9.4812705,50 9.4812705,50 l 10.4411835,0 0.841314,0 3.433448,0 c -0.09117,-3.080618 -2.713699,-3.128058 -3.045777,-3.161414 0.358021,-1.263824 0.528508,-2.583983 0.490704,-3.886352 0.495152,-0.226821 1.030332,-0.550004 1.495834,-0.960655 0.421027,2.854538 0.838348,4.223619 0.912473,4.624633 0.07487,0.400273 0.395825,2.271919 0.784979,2.884929 0.223115,0.408427 0.77386,0.447713 1.02959,0.450678 0.136389,0.0015 0.736056,0.03261 1.332759,0 l 2.51727,0 c 0.07042,-2.694429 -2.471313,-3.133246 -2.639575,-3.18884 -0.887271,-3.942687 1.980607,-7.677825 2.678861,-11.641267 0.546297,-3.11175 -0.283897,-6.282059 -0.396567,-9.450885 -0.01853,-0.415839 0,-0.88653 0.283156,-1.188958 0.207549,-0.22608 0.528508,-0.32096 0.830195,-0.377294 1.792331,-0.32096 3.811484,0.188276 5.131642,-0.32096 1.566993,-0.657485 2.547661,-2.732973 2.094019,-3.525365 z" style="fill:#ffffff;fill-opacity:1" />
    </svg>